<?xml version="1.0" standalone="no"?><svg xmlns="http://www.w3.org/2000/svg" viewBox="0 0 1440 320"><path fill="#0099ff" fill-opacity="1" d="M0,288L8.3,245.3C16.6,203,33,117,50,96C66.2,75,83,117,99,144C115.9,171,132,181,149,176C165.5,171,182,149,199,128C215.2,107,232,85,248,90.7C264.8,96,281,128,298,138.7C314.5,149,331,139,348,138.7C364.1,139,381,149,397,176C413.8,203,430,245,447,266.7C463.4,288,480,288,497,293.3C513.1,299,530,309,546,288C562.8,267,579,213,596,192C612.4,171,629,181,646,176C662.1,171,679,149,695,144C711.7,139,728,149,745,170.7C761.4,192,778,224,794,234.7C811,245,828,235,844,208C860.7,181,877,139,894,112C910.3,85,927,75,943,85.3C960,96,977,128,993,133.3C1009.7,139,1026,117,1043,122.7C1059.3,128,1076,160,1092,176C1109,192,1126,192,1142,208C1158.6,224,1175,256,1192,250.7C1208.3,245,1225,203,1241,192C1257.9,181,1274,203,1291,181.3C1307.6,160,1324,96,1341,106.7C1357.2,117,1374,203,1390,208C1406.9,213,1423,139,1432,101.3L1440,64L1440,320L1431.7,320C1423.4,320,1407,320,1390,320C1373.8,320,1357,320,1341,320C1324.1,320,1308,320,1291,320C1274.5,320,1258,320,1241,320C1224.8,320,1208,320,1192,320C1175.2,320,1159,320,1142,320C1125.5,320,1109,320,1092,320C1075.9,320,1059,320,1043,320C1026.2,320,1010,320,993,320C976.6,320,960,320,943,320C926.9,320,910,320,894,320C877.2,320,861,320,844,320C827.6,320,811,320,794,320C777.9,320,761,320,745,320C728.3,320,712,320,695,320C678.6,320,662,320,646,320C629,320,612,320,596,320C579.3,320,563,320,546,320C529.7,320,513,320,497,320C480,320,463,320,447,320C430.3,320,414,320,397,320C380.7,320,364,320,348,320C331,320,314,320,298,320C281.4,320,265,320,248,320C231.7,320,215,320,199,320C182.1,320,166,320,149,320C132.4,320,116,320,99,320C82.8,320,66,320,50,320C33.1,320,17,320,8,320L0,320Z"></path></svg>